<?xml version="1.0" standalone="no"?>
<!DOCTYPE svg PUBLIC "-//W3C//DTD SVG 20010904//EN"
 "http://www.w3.org/TR/2001/REC-SVG-20010904/DTD/svg10.dtd">
<svg version="1.0" xmlns="http://www.w3.org/2000/svg"
 width="407.000000pt" height="529.000000pt" viewBox="0 0 407.000000 529.000000"
 preserveAspectRatio="xMidYMid meet">
<metadata>
Created by potrace 1.15, written by Peter Selinger 2001-2017
</metadata>
<g transform="translate(0.000000,529.000000) scale(0.100000,-0.100000)"
fill="#000000" stroke="none">
<path d="M1530 5229 c-47 -10 -97 -25 -112 -33 -14 -9 -33 -16 -41 -16 -8 0
-34 -18 -58 -40 -24 -22 -49 -40 -56 -40 -6 0 -28 -19 -47 -42 -20 -23 -39
-39 -42 -35 -4 3 -21 -1 -38 -10 -17 -9 -37 -18 -44 -19 -37 -6 -42 -14 -42
-65 0 -43 -5 -58 -31 -88 -66 -78 -179 -283 -179 -324 0 -9 -5 -17 -11 -17 -5
0 -7 -4 -4 -10 3 -5 1 -10 -4 -10 -6 0 -11 -13 -11 -30 0 -16 -4 -30 -8 -30
-5 0 -19 -34 -31 -75 -13 -41 -26 -73 -30 -72 -3 1 -7 -1 -8 -6 -2 -4 -8 -20
-16 -35 -7 -15 -12 -48 -12 -74 1 -26 -2 -43 -6 -37 -11 19 -20 -7 -10 -33 6
-16 4 -30 -8 -48 -11 -16 -17 -41 -16 -70 1 -25 -4 -64 -11 -88 -17 -51 -18
-65 -4 -57 6 3 10 1 10 -5 0 -7 -8 -9 -21 -5 -15 5 -19 4 -15 -4 8 -12 -34
-151 -45 -151 -3 0 -5 -16 -3 -35 1 -24 -4 -42 -15 -53 -23 -22 -42 -71 -40
-102 1 -14 -5 -52 -13 -85 -28 -107 -38 -176 -28 -195 5 -10 12 -76 14 -146 3
-71 5 -132 5 -136 1 -5 8 -8 16 -8 10 0 14 -11 14 -37 0 -21 1 -45 2 -53 1
-15 -6 -84 -17 -168 -4 -23 -10 -45 -14 -47 -5 -3 -7 -32 -4 -65 4 -45 2 -60
-8 -60 -7 0 -24 -21 -37 -46 -14 -25 -35 -51 -48 -57 -14 -6 -23 -19 -23 -33
0 -48 -18 -74 -50 -74 -17 0 -40 5 -51 10 -32 18 -109 29 -116 17 -3 -6 9 -24
28 -41 19 -17 33 -34 31 -39 -1 -5 2 -6 7 -3 5 4 16 0 24 -8 8 -8 16 -13 18
-11 2 2 21 -9 41 -24 32 -24 36 -30 25 -44 -20 -26 -199 -157 -224 -163 -16
-4 -34 2 -57 20 -47 35 -56 33 -56 -14 0 -43 9 -49 35 -24 13 14 21 15 42 5
29 -13 37 -9 193 99 52 37 111 73 130 80 19 7 58 26 85 41 28 15 73 33 100 39
28 6 59 15 70 20 11 5 33 11 49 15 15 3 51 21 79 40 28 19 54 32 58 29 12 -7
-18 -57 -36 -60 -23 -3 -32 -14 -12 -14 10 0 17 -4 17 -10 0 -5 -4 -10 -9 -10
-5 0 -11 -10 -15 -22 -5 -22 -6 -23 -21 -3 -16 20 -16 20 -6 -2 6 -12 16 -24
23 -26 10 -4 10 -6 1 -6 -7 -1 -10 -8 -6 -18 4 -12 0 -10 -13 5 l-20 24 2 -44
c1 -23 0 -37 -3 -30 -2 6 -12 12 -21 12 -11 0 -13 -3 -6 -8 7 -4 8 -15 3 -27
-4 -11 -8 -14 -8 -6 -1 10 -4 11 -14 2 -10 -8 -17 -7 -27 2 -10 10 -12 9 -7
-5 3 -9 -1 -22 -9 -28 -8 -7 -14 -18 -14 -24 0 -6 5 -3 11 7 12 21 29 22 29 1
0 -8 -4 -12 -10 -9 -5 3 -10 -1 -10 -9 0 -9 -4 -16 -10 -16 -5 0 -9 -16 -7
-35 1 -19 5 -35 9 -35 3 0 4 -9 1 -21 -4 -16 -8 -17 -14 -7 -6 10 -9 8 -9 -7
0 -13 -3 -16 -8 -8 -5 8 -14 6 -32 -7 l-25 -19 29 5 c25 4 28 3 17 -10 -10
-11 -10 -19 -1 -33 11 -17 11 -17 6 1 -8 23 10 47 30 39 16 -6 19 -33 4 -33
-6 0 -9 -15 -7 -33 3 -23 0 -34 -10 -34 -7 0 -13 4 -13 9 0 4 -5 7 -12 5 -7
-1 -12 3 -13 8 0 6 -4 16 -9 24 -6 10 -5 12 2 7 14 -9 15 4 2 24 -7 11 -10 11
-10 2 0 -23 -19 -2 -29 31 -7 26 -9 28 -10 9 -1 -13 6 -37 15 -55 l15 -32 -20
25 c-19 23 -21 23 -21 5 -1 -20 -1 -20 -15 -1 -10 14 -12 22 -4 27 6 4 3 8 -9
11 -15 4 -19 2 -15 -8 3 -8 1 -14 -4 -14 -5 0 -10 -7 -10 -15 0 -8 6 -15 14
-15 9 0 6 -7 -7 -20 -11 -11 -23 -20 -27 -20 -4 0 -2 5 5 12 15 15 16 31 0 22
-7 -4 -8 -3 -4 5 10 16 -1 44 -23 58 -15 10 -20 9 -24 -1 -3 -8 1 -13 10 -12
9 0 18 -5 20 -11 3 -9 -6 -13 -27 -13 -28 0 -30 -2 -20 -20 9 -16 8 -22 -5
-27 -12 -4 -15 -13 -10 -32 4 -17 3 -21 -3 -13 -7 10 -11 7 -17 -15 -5 -15 -9
-31 -9 -35 -1 -3 -5 -10 -10 -15 -5 -5 -6 -3 -2 5 10 16 -2 15 -19 -2 -8 -7
-11 -16 -8 -20 4 -3 0 -6 -9 -6 -18 0 -52 -29 -61 -50 -6 -18 -7 -13 -11 60
-1 25 -7 54 -14 65 -6 11 -22 45 -36 77 -28 64 -43 79 -43 43 0 -14 4 -25 9
-25 5 0 8 -6 5 -12 -2 -7 2 -28 10 -46 7 -18 11 -37 8 -42 -3 -4 1 -15 8 -22
15 -14 15 -59 2 -92 -6 -14 -5 -17 3 -12 7 4 12 2 12 -3 0 -18 -24 -12 -38 9
-15 24 -38 26 -46 4 -3 -8 -10 -13 -15 -9 -6 3 -15 -3 -21 -14 -7 -13 -7 -22
0 -26 9 -5 13 -1 12 15 -1 13 46 38 57 30 17 -10 6 -46 -16 -54 -13 -5 -14 -4
-3 9 10 12 10 15 -4 15 -8 0 -23 -11 -32 -25 -23 -35 -30 -31 -28 13 1 27 -2
39 -12 39 -10 0 -12 -7 -9 -21 5 -19 5 -19 -5 -3 -10 15 -7 23 16 45 22 22 26
23 20 7 -6 -17 -5 -18 6 -7 11 11 10 16 -4 26 -25 19 -22 27 7 22 20 -4 55 14
55 28 0 1 -20 2 -45 2 -25 1 -42 -3 -39 -8 4 -5 -4 -8 -17 -6 l-24 3 -3 -832
-2 -833 680 0 c665 0 680 0 680 19 0 46 62 68 93 33 13 -15 14 -21 4 -32 -8
-9 -8 -11 0 -6 6 3 14 2 18 -4 3 -5 42 -10 87 -10 l80 0 -5 333 c-2 182 -7
343 -10 357 -3 14 -8 43 -12 65 -3 22 -10 56 -15 75 -12 46 -40 221 -46 285
-5 54 -20 164 -29 205 -3 14 -8 46 -11 72 -2 26 -11 69 -19 94 -8 26 -12 51
-9 56 10 15 -66 276 -89 306 -5 6 -7 12 -4 12 3 0 -1 17 -9 38 -9 20 -21 50
-27 67 -20 50 -78 159 -96 180 -9 11 -26 37 -36 57 -10 20 -23 34 -28 31 -5
-3 -13 1 -18 8 -8 12 -10 12 -18 0 -7 -11 -11 -10 -20 7 -7 14 -8 23 -1 27 5
3 10 2 10 -4 0 -6 7 -8 15 -5 13 5 12 13 -10 49 -28 49 -25 69 16 90 26 14 32
13 75 -10 l47 -25 22 20 c12 11 28 20 37 20 9 0 18 6 21 13 2 7 11 -1 20 -18
9 -16 31 -46 48 -65 18 -20 24 -24 15 -10 -39 61 -47 82 -41 111 4 16 11 29
16 29 16 0 68 104 75 150 8 54 20 81 37 77 7 -1 11 6 9 17 -2 10 1 15 7 12 5
-4 12 -2 16 4 4 6 11 8 16 5 5 -4 9 1 9 9 0 8 4 18 10 21 5 3 7 0 4 -9 -4 -10
2 -17 19 -21 22 -6 50 -44 52 -70 0 -5 8 -19 18 -29 9 -11 17 -29 18 -40 0
-16 2 -17 7 -6 4 8 13 16 20 18 8 1 11 -2 7 -8 -3 -5 3 -24 15 -40 12 -17 18
-30 14 -30 -3 0 0 -8 7 -17 10 -11 10 -14 2 -9 -8 4 -13 1 -13 -8 0 -9 5 -16
11 -16 5 0 7 -4 4 -10 -3 -5 -2 -10 3 -10 6 0 8 -10 4 -22 -4 -16 -2 -20 10
-16 9 4 15 0 15 -8 0 -8 -4 -14 -9 -14 -4 0 -8 -5 -8 -11 0 -5 5 -7 10 -4 6 3
10 0 10 -8 0 -8 -8 -14 -17 -13 -13 1 -18 -7 -19 -30 0 -24 3 -31 15 -26 10 4
13 1 8 -12 -4 -10 -3 -15 3 -11 6 3 10 -1 10 -10 0 -10 -5 -13 -12 -9 -8 5 -9
2 -4 -12 4 -10 9 -27 12 -38 3 -19 43 -53 57 -48 4 1 7 -2 7 -8 0 -5 8 -10 18
-10 13 0 14 -2 4 -9 -10 -6 -8 -10 10 -15 13 -4 18 -10 11 -12 -15 -7 23 -70
66 -112 15 -15 31 -37 35 -49 4 -13 11 -23 16 -23 4 0 6 -15 5 -33 -4 -44 -4
-44 -15 -27 -8 13 -10 12 -10 -3 0 -11 -6 -17 -16 -15 -10 2 -19 -2 -21 -9 -5
-14 60 -48 199 -104 121 -48 195 -86 202 -105 3 -9 0 -11 -11 -7 -11 4 -14 2
-9 -5 4 -7 3 -12 -2 -12 -32 0 -163 -125 -162 -154 0 -6 5 -3 11 8 6 10 14 14
18 9 12 -18 127 -41 201 -39 65 1 76 4 84 21 10 23 74 56 124 64 l33 6 -32 39
c-18 21 -49 45 -68 53 l-36 15 23 17 c13 9 33 25 46 36 12 11 15 15 6 9 -23
-18 -98 -54 -110 -54 -15 0 -12 26 5 40 29 24 7 21 -45 -5 -35 -18 -56 -23
-62 -17 -15 15 -5 26 69 70 94 56 153 110 187 173 37 70 47 105 55 211 l6 86
65 -81 c56 -70 139 -149 236 -222 14 -11 42 -50 62 -86 21 -36 55 -94 77 -128
194 -307 360 -577 418 -681 39 -69 88 -151 110 -184 58 -86 123 -230 142 -316
20 -91 23 -234 6 -314 -7 -32 -26 -87 -42 -122 l-28 -64 149 0 150 0 0 944 c0
818 -2 948 -15 972 -8 16 -15 37 -15 47 0 9 -5 17 -12 17 -6 0 -9 3 -6 6 4 3
-5 22 -18 41 -13 20 -24 42 -24 49 0 7 -9 18 -20 24 -11 6 -20 17 -20 25 0 8
-5 15 -11 15 -6 0 4 -25 21 -55 17 -30 35 -67 40 -82 4 -16 11 -37 16 -47 5
-14 4 -17 -4 -12 -16 10 -15 5 8 -49 l20 -46 -27 21 c-18 14 -29 17 -33 9 -5
-7 -9 -5 -14 6 -8 23 -8 27 4 20 13 -8 13 15 0 35 -8 13 -10 12 -10 -4 0 -20
0 -20 -15 0 -20 27 -20 51 0 34 9 -8 15 -8 15 -2 0 6 -16 16 -36 22 -23 8 -32
15 -24 20 9 5 6 12 -11 23 -18 13 -20 19 -10 31 10 12 6 13 -24 9 -27 -4 -35
-1 -35 11 0 8 -9 18 -20 21 -11 3 -20 11 -20 16 0 6 -4 8 -9 5 -5 -3 -12 1
-15 10 -4 10 -13 13 -25 9 -11 -3 -23 0 -27 6 -5 8 -3 10 7 4 8 -4 5 1 -6 12
-11 11 -22 19 -24 17 -2 -2 -20 12 -40 31 -20 19 -39 35 -43 35 -5 0 -8 7 -8
16 0 11 -6 15 -20 11 -11 -3 -22 -1 -25 3 -6 10 -46 9 -60 -1 -6 -4 -17 -4
-24 0 -10 6 -9 10 4 15 9 3 13 10 10 16 -3 6 4 10 17 10 13 1 37 7 53 15 24
12 25 13 5 8 -53 -14 -143 -3 -190 24 -24 15 -39 28 -32 31 8 2 4 10 -10 23
-30 24 -26 24 95 -6 131 -33 167 -44 167 -56 0 -5 12 -9 26 -9 50 0 243 -110
349 -199 55 -46 103 -90 106 -99 4 -13 7 -13 14 -2 5 9 0 20 -17 34 -199 166
-313 236 -500 307 -53 20 -100 39 -105 42 -5 3 -19 26 -32 52 -16 33 -21 55
-17 79 6 32 -13 88 -35 102 -5 3 -7 13 -5 22 7 21 -1 32 -37 55 -15 10 -32 30
-38 44 -5 15 -16 31 -23 37 -14 11 -21 40 -32 129 -5 38 -2 58 20 107 43 95
59 197 51 325 -4 61 -13 128 -20 150 -7 22 -16 58 -20 80 -4 22 -15 54 -26 71
-24 40 -24 69 1 101 19 25 20 68 3 97 -4 6 -8 18 -8 27 -1 9 -18 33 -38 53
-20 20 -44 53 -52 73 -15 36 -48 70 -100 106 -16 12 -24 25 -21 34 11 27 -12
87 -36 98 -33 14 -62 78 -49 104 22 41 1 161 -28 161 -6 0 -11 6 -11 13 0 18
-32 47 -52 47 -23 0 -68 39 -68 58 0 9 -23 37 -50 60 -28 24 -62 61 -75 82
-13 21 -42 57 -63 80 -23 26 -46 64 -56 96 -16 51 -53 99 -101 130 -36 23
-223 81 -325 99 -52 10 -122 23 -154 30 -89 19 -314 16 -416 -6z m500 -798
c25 -4 44 -12 43 -18 -2 -7 7 -10 21 -7 18 3 25 -1 29 -17 4 -16 11 -19 26
-14 15 5 21 2 21 -10 0 -12 -6 -14 -27 -9 -24 6 -26 5 -16 -8 7 -8 10 -18 6
-21 -3 -4 -1 -7 5 -7 7 0 12 5 12 10 0 6 9 10 20 10 11 0 19 -3 19 -7 -3 -21
3 -24 18 -12 15 13 15 12 6 -5 -12 -22 1 -41 32 -47 10 -2 17 -8 14 -13 -2 -5
7 -13 21 -18 15 -6 20 -12 13 -15 -21 -8 -15 -25 6 -18 26 8 40 -14 34 -53 -5
-31 -8 -34 -34 -28 -23 4 -29 2 -29 -12 0 -14 -2 -14 -9 -3 -11 17 -41 7 -41
-14 0 -17 -16 -20 -25 -5 -11 18 -35 10 -53 -18 -9 -16 -23 -27 -29 -25 -7 3
-13 0 -13 -6 0 -6 -8 -7 -20 -3 -10 4 -59 4 -107 0 -48 -3 -119 -7 -158 -7
-41 -1 -80 -7 -95 -16 -27 -15 -40 -21 -82 -37 -39 -14 -26 -38 15 -28 60 16
132 20 147 10 13 -9 10 -15 -18 -40 -18 -17 -39 -30 -48 -30 -21 0 -75 -29
-98 -52 -10 -11 -26 -18 -37 -15 -10 3 -20 -1 -23 -8 -5 -13 58 -45 88 -45 8
0 17 -6 20 -12 3 -9 9 -7 20 6 9 11 16 15 16 8 0 -6 7 -9 15 -6 8 4 15 2 15
-4 0 -5 -12 -13 -27 -17 -19 -5 -23 -9 -13 -13 8 -2 22 -11 30 -18 8 -7 43
-17 78 -23 145 -23 258 32 269 132 4 35 11 51 27 59 29 16 46 18 46 5 0 -5 3
-7 6 -4 9 9 59 -50 85 -100 30 -58 75 -101 91 -85 18 18 26 15 30 -10 l3 -23
21 21 c23 23 63 38 127 49 53 9 127 62 127 92 0 12 9 27 19 33 18 9 23 3 53
-57 31 -64 33 -74 33 -173 0 -95 -3 -110 -29 -165 -16 -33 -30 -64 -30 -69 -2
-19 -25 -17 -36 3 -6 12 -15 21 -20 21 -19 0 -58 42 -53 56 5 14 40 13 65 -2
7 -4 10 -4 6 1 -4 4 -3 15 1 24 6 11 3 23 -8 37 -14 18 -28 22 -72 21 -47 -1
-62 4 -118 41 -50 33 -67 39 -78 30 -19 -16 -10 -62 21 -99 39 -46 32 -119
-11 -119 -7 0 -13 8 -13 19 0 10 -6 23 -13 29 -10 9 -22 -2 -52 -49 -36 -57
-39 -59 -60 -45 -12 8 -51 18 -86 21 -58 6 -62 5 -45 -9 10 -8 24 -17 30 -19
7 -3 4 -12 -8 -26 -20 -22 -20 -22 2 -28 60 -15 -10 -45 -118 -50 -102 -5
-121 4 -96 41 9 14 13 26 9 26 -5 0 -3 4 3 8 6 4 23 31 38 60 14 28 33 52 40
52 10 0 12 10 9 35 -3 21 1 42 8 51 19 23 2 29 -39 15 -53 -20 -88 -52 -157
-146 -34 -46 -74 -93 -89 -106 -33 -29 -40 -72 -15 -95 18 -16 35 -82 31 -119
-1 -11 -4 -45 -5 -77 -1 -31 -6 -54 -11 -51 -5 3 -7 0 -4 -7 2 -7 15 -15 28
-17 13 -2 21 -1 17 3 -3 4 -1 16 5 28 7 11 13 23 14 26 7 31 19 41 40 36 22
-6 24 -3 24 31 0 21 4 43 8 50 8 13 43 11 85 -6 36 -14 37 -14 31 3 -3 8 -1
17 5 20 19 12 -11 46 -35 40 -28 -7 -55 33 -33 47 21 13 27 11 39 -12 11 -19
12 -20 24 -3 12 16 17 16 47 4 24 -10 34 -11 37 -2 6 18 49 -15 54 -42 3 -13
-1 -32 -9 -42 -7 -10 -13 -12 -13 -6 0 7 -4 12 -10 12 -5 0 -10 -7 -10 -15 0
-8 -5 -15 -11 -15 -21 0 3 -19 39 -30 20 -7 42 -17 47 -23 7 -7 6 -8 -1 -4 -5
3 -23 -2 -38 -12 -15 -10 -38 -16 -51 -13 -37 7 -30 -5 15 -28 22 -11 37 -26
35 -33 -10 -27 13 -40 78 -42 122 -5 149 -21 128 -76 -11 -28 -71 -68 -71 -47
0 9 -3 10 -8 2 -4 -6 -17 -14 -29 -18 -13 -4 -23 -12 -23 -17 0 -6 -5 -7 -10
-4 -6 4 -23 -1 -37 -10 -60 -40 -262 28 -321 108 -7 9 -20 17 -28 17 -8 0 -12
5 -9 10 4 6 -7 13 -24 16 -17 4 -28 10 -25 15 8 14 -5 29 -21 23 -8 -4 -12
-10 -9 -15 3 -5 0 -9 -5 -9 -6 0 -11 5 -11 11 0 5 -8 9 -17 8 -10 -2 -28 2
-40 9 -13 7 -23 10 -23 7 0 -9 -54 28 -63 43 -5 7 -17 16 -26 20 -31 12 -103
104 -136 174 -32 66 -40 103 -65 318 -7 52 -16 118 -20 146 -5 28 -12 88 -15
135 -6 76 -4 91 19 152 50 131 79 167 131 167 24 0 66 23 62 34 -2 6 8 27 23
46 15 19 28 38 29 43 2 22 35 69 59 84 15 10 54 40 87 66 67 54 89 65 155 77
58 10 104 10 160 1z"/>
<path d="M2625 1455 c-118 -52 -253 -154 -237 -179 4 -6 7 -19 7 -28 0 -10 4
-18 8 -17 10 0 28 -20 45 -50 13 -23 13 -23 -13 -17 -15 4 -41 9 -59 12 -28 4
-27 3 9 -11 29 -12 233 -54 263 -55 2 0 1 -8 -2 -18 -4 -12 5 -34 22 -58 l29
-40 -34 -39 c-19 -22 -39 -49 -44 -60 -6 -11 0 -7 12 8 24 31 39 23 39 -21 0
-16 4 -21 13 -16 9 6 9 4 -1 -8 -10 -13 -10 -19 2 -31 13 -12 14 -28 8 -81 -5
-37 -5 -66 0 -66 5 0 7 -4 4 -9 -11 -17 -15 -81 -6 -81 6 0 10 -8 10 -17 0
-24 23 -87 35 -95 7 -5 7 -8 0 -8 -5 0 -3 -4 5 -10 8 -5 12 -12 8 -15 -9 -9
-79 23 -106 48 -37 34 -73 113 -82 181 l-9 61 4 -69 c5 -83 32 -142 85 -190
52 -47 104 -60 216 -53 85 5 91 4 100 -16 5 -12 16 -21 23 -19 7 1 20 -7 30
-19 11 -14 24 -20 34 -16 17 6 16 25 -4 82 -12 32 -11 37 13 62 14 16 31 39
38 51 15 30 15 138 -1 195 -15 58 -91 227 -99 222 -4 -2 -20 9 -36 26 -39 41
-75 59 -120 59 -31 0 -35 2 -24 15 7 9 11 18 8 20 -3 3 -10 -5 -17 -18 -7 -12
-28 -29 -46 -38 l-34 -16 -12 31 c-7 17 -22 43 -33 58 -11 15 -17 30 -14 34
14 13 91 25 102 14 16 -16 30 -12 16 5 -7 8 -19 15 -27 15 -11 0 -7 9 11 31
21 25 26 41 26 85 0 31 -4 53 -9 50 -4 -3 -6 5 -4 18 3 13 -2 30 -12 39 -9 10
-14 17 -11 17 4 0 -6 18 -20 40 -15 22 -27 40 -28 40 0 0 -37 -16 -81 -35z"/>
</g>
</svg>
