<?xml version="1.0" standalone="no"?>
<!DOCTYPE svg PUBLIC "-//W3C//DTD SVG 20010904//EN"
 "http://www.w3.org/TR/2001/REC-SVG-20010904/DTD/svg10.dtd">
<svg version="1.0" xmlns="http://www.w3.org/2000/svg"
 width="491.000000pt" height="509.000000pt" viewBox="0 0 491.000000 509.000000"
 preserveAspectRatio="xMidYMid meet">
<metadata>
Created by potrace 1.15, written by Peter Selinger 2001-2017
</metadata>
<g transform="translate(0.000000,509.000000) scale(0.100000,-0.100000)"
fill="#000000" stroke="none">
<path d="M1686 5053 c-21 -6 -35 -18 -52 -48 -6 -11 -20 -21 -30 -23 -10 -2
-28 -7 -39 -12 -11 -5 -48 -10 -83 -13 -34 -2 -68 -9 -75 -17 -6 -7 -7 -10 -1
-7 6 3 42 7 80 8 38 1 87 7 109 14 35 12 112 27 132 27 4 0 9 -5 11 -11 2 -6
-3 -11 -12 -11 -9 0 -16 -8 -16 -17 0 -12 -3 -14 -8 -6 -4 7 -13 9 -21 4 -7
-5 -10 -14 -6 -20 4 -7 1 -18 -5 -26 -6 -8 -9 -19 -6 -24 4 -6 -6 -17 -22 -25
-16 -8 -32 -24 -35 -36 -9 -35 -26 -22 -24 19 1 21 5 37 10 34 4 -2 7 2 7 11
0 8 6 16 13 19 7 2 8 8 3 13 -5 5 -11 4 -13 -3 -3 -7 -15 -13 -28 -13 -13 0
-25 -6 -27 -12 -4 -10 -9 -8 -21 3 -9 9 -13 19 -10 23 4 3 1 6 -5 6 -6 0 -17
-6 -24 -13 -7 -8 -20 -12 -30 -9 -12 3 -18 -1 -18 -11 0 -10 -6 -13 -20 -10
-11 3 -20 10 -20 16 0 6 3 7 7 4 7 -8 33 11 33 25 0 5 -4 6 -10 3 -5 -3 -19
-8 -29 -10 -14 -3 -18 1 -14 11 9 24 -53 -16 -71 -46 -8 -15 -56 -53 -105 -84
-64 -41 -93 -66 -100 -87 -9 -26 -48 -70 -99 -111 -24 -19 -29 -57 -12 -89 15
-27 26 -24 39 13 15 43 -3 63 -20 22 -12 -28 -13 -28 -17 -6 -5 31 5 55 20 50
7 -3 19 1 26 9 15 14 36 8 26 -8 -3 -5 -10 -6 -16 -3 -8 5 -9 1 -5 -10 10 -26
-14 -116 -35 -127 -15 -8 -20 -5 -27 13 -5 13 -6 30 -4 38 4 13 4 13 -6 0 -6
-8 -11 -23 -11 -33 0 -10 -9 -44 -19 -75 -20 -57 -24 -192 -8 -208 4 -4 7 -24
7 -44 0 -20 3 -40 6 -43 12 -11 54 -121 54 -139 0 -9 5 -20 10 -23 22 -14 129
-249 132 -292 1 -7 9 -13 18 -13 24 0 51 -32 41 -49 -10 -15 -19 -15 -48 4
-20 13 -23 13 -38 -7 -21 -31 -19 -115 5 -158 l19 -35 1 45 c2 49 21 112 36
117 6 2 29 -13 53 -33 l42 -37 -21 -22 c-23 -24 -35 -81 -19 -90 5 -4 9 0 9 8
0 7 9 31 20 53 17 35 19 37 21 14 1 -14 1 -28 0 -32 0 -4 15 -37 34 -74 18
-38 31 -72 29 -76 -3 -4 -1 -8 4 -8 19 0 -1 -51 -30 -75 -35 -30 -39 -30 -84
-9 -23 11 -43 32 -59 63 -13 25 -24 42 -25 38 -1 -18 42 -87 66 -106 32 -25
90 -28 122 -5 25 17 23 20 42 -68 19 -93 78 -229 120 -274 35 -38 51 -75 76
-177 3 -15 8 -26 11 -24 2 3 -3 32 -11 65 -19 70 -20 96 -4 67 6 -11 47 -55
92 -99 75 -73 167 -131 236 -149 21 -5 28 -45 10 -63 -5 -5 -11 -20 -13 -34
-5 -33 -31 -48 -57 -32 -30 18 -45 14 -20 -6 22 -18 20 -52 -4 -52 -6 0 -17
-12 -24 -27 -7 -17 -8 -23 -1 -16 13 13 39 -5 33 -22 -3 -6 5 -11 16 -12 11
-1 34 -16 52 -33 l33 -32 -52 5 c-63 7 -68 -5 -23 -56 30 -35 31 -49 2 -41
-13 4 -13 2 2 -8 29 -20 70 -58 62 -58 -3 0 8 -14 26 -31 18 -17 26 -28 18
-24 -8 4 -1 -4 15 -19 17 -14 35 -26 40 -26 41 -5 67 -5 71 1 2 4 13 5 25 2
12 -4 32 3 50 16 47 35 63 22 56 -44 -3 -30 -2 -55 3 -55 11 0 82 47 90 59 10
16 92 52 126 55 19 2 37 6 41 10 3 3 12 1 19 -5 8 -6 19 -9 26 -6 7 2 18 -1
23 -7 20 -22 14 -42 -18 -61 -17 -10 -34 -21 -37 -25 -17 -22 -84 -63 -117
-71 -66 -18 -121 -57 -176 -127 -30 -37 -82 -96 -117 -132 -34 -36 -69 -75
-78 -88 -11 -17 -18 -20 -28 -11 -8 6 -14 19 -14 28 -1 17 -24 53 -35 51 -24
-4 -152 242 -174 335 -6 28 -22 79 -35 115 -47 126 -56 167 -56 262 0 56 -8
129 -19 179 -25 111 -29 121 -46 106 -7 -7 -11 -15 -9 -18 2 -4 -3 -12 -11
-19 -24 -20 -94 -127 -88 -134 4 -3 -7 -32 -23 -63 -16 -32 -30 -71 -30 -88
-1 -16 -8 -43 -15 -60 -7 -16 -11 -34 -11 -38 1 -4 -2 -13 -8 -20 -45 -53 -69
-91 -63 -100 3 -5 1 -7 -5 -3 -19 11 -25 -15 -6 -28 11 -8 13 -15 6 -20 -6 -3
-13 -2 -17 4 -10 17 -25 11 -25 -9 0 -11 -5 -23 -10 -26 -6 -3 -10 -26 -10
-50 0 -24 -5 -47 -10 -50 -6 -4 -10 -3 -9 2 3 19 -2 27 -10 14 -12 -19 -111
-22 -111 -3 0 43 44 221 67 270 15 31 27 59 28 62 0 3 6 15 13 26 9 18 9 24
-3 34 -8 7 -15 9 -15 5 0 -4 -8 -1 -17 6 -15 12 -16 12 -10 -3 7 -19 -18 -38
-51 -38 -18 0 -37 -31 -33 -54 1 -5 -4 -4 -12 2 -17 15 -28 6 -20 -16 5 -13 3
-14 -6 -6 -10 9 -10 17 -2 32 6 11 11 27 11 34 0 7 -8 -2 -16 -19 -9 -18 -21
-30 -26 -27 -5 3 -18 -6 -28 -19 -13 -16 -27 -23 -39 -20 -10 2 -24 -2 -32 -9
-16 -15 -28 -16 -46 -5 -12 8 -17 2 -14 -15 0 -4 -11 -11 -25 -14 -19 -5 -22
-9 -13 -15 10 -6 11 -11 3 -19 -8 -8 -14 -8 -18 -1 -5 7 -15 7 -32 1 -14 -6
-29 -8 -33 -6 -4 3 -13 0 -21 -6 -12 -8 -12 -9 2 -4 10 3 20 1 23 -4 4 -6 -4
-10 -17 -11 -13 0 -17 -3 -10 -6 19 -7 14 -23 -7 -23 -11 0 -21 -4 -23 -10 -1
-5 -17 -14 -35 -19 -31 -9 -31 -8 -23 14 6 15 5 25 -1 27 -5 2 -1 32 10 71 10
37 16 67 14 67 -2 0 -13 -20 -24 -45 -12 -28 -24 -89 -31 -159 -6 -64 -15
-113 -19 -110 -14 8 -22 -18 -8 -28 12 -8 11 -9 -1 -6 -8 3 -17 15 -21 29 -5
23 -6 23 -13 -7 -4 -17 -6 -35 -4 -40 1 -5 -3 -18 -8 -29 -6 -11 -12 -78 -13
-149 -1 -72 -4 -132 -6 -135 -3 -2 -6 70 -6 160 -1 90 -4 151 -6 134 -3 -16
-13 -37 -24 -46 -12 -10 -17 -23 -13 -34 4 -9 2 -20 -4 -24 -21 -12 -52 -95
-39 -103 16 -9 2 -22 -17 -15 -10 4 -13 15 -10 34 4 24 1 22 -21 -16 -14 -23
-25 -49 -25 -56 0 -7 -5 -15 -10 -17 -15 -5 -62 -149 -57 -175 2 -12 0 -20 -5
-17 -5 4 -8 -2 -7 -12 1 -11 -5 -37 -15 -59 -21 -48 -46 -141 -46 -171 0 -12
-6 -27 -14 -33 -7 -6 -16 -24 -19 -39 -7 -36 -53 -89 -60 -71 -3 9 -6 6 -6 -7
-1 -27 52 -110 81 -125 52 -27 138 -103 138 -121 0 -10 -16 -65 -36 -121 -20
-56 -36 -108 -37 -114 0 -7 -5 -13 -11 -13 -7 0 -18 -21 -26 -47 -18 -62 -49
-96 -50 -55 -1 9 -12 -5 -27 -33 -14 -27 -42 -68 -63 -90 -22 -22 -43 -52 -49
-68 l-11 -27 56 0 c38 0 53 4 48 11 -4 8 0 7 15 -1 12 -6 30 -9 39 -7 16 4 16
5 0 6 -21 1 -22 5 -9 30 9 16 5 18 -40 17 -27 -1 -49 2 -49 5 0 4 16 30 35 59
25 38 35 46 35 31 0 -11 10 -26 22 -32 13 -7 23 -11 23 -10 0 10 35 -14 40
-27 4 -11 -2 -9 -19 7 -29 27 -33 17 -11 -25 9 -18 11 -30 4 -32 -6 -3 -6 -9
2 -18 9 -11 65 -14 299 -14 l288 0 14 30 c7 17 15 30 18 30 3 0 5 15 5 33 0
38 48 132 53 104 2 -10 -3 -28 -10 -40 -8 -12 -19 -35 -26 -52 l-13 -30 20 25
c25 32 33 23 39 -45 l4 -55 1939 0 c1545 0 1939 3 1939 13 0 6 -7 37 -15 67
-8 30 -15 58 -15 61 0 3 18 14 40 24 44 20 52 46 24 81 -15 18 -15 18 -5 -3
14 -27 14 -43 1 -43 -18 0 -31 40 -34 109 -2 38 -7 75 -12 82 -4 7 -8 22 -9
33 -4 44 -18 96 -25 91 -4 -2 -5 6 -3 18 2 12 -4 45 -12 72 -12 39 -14 43 -11
15 l5 -35 -13 29 c-7 16 -14 61 -14 100 -1 83 -50 240 -133 433 -92 212 -107
256 -133 393 -29 147 -53 223 -67 215 -5 -4 -6 2 -2 11 5 13 3 15 -7 9 -8 -5
-11 -4 -6 3 9 15 -35 100 -69 134 -34 35 -155 132 -175 142 -8 4 -2 -3 15 -16
45 -35 175 -149 175 -153 0 -6 -66 38 -121 79 -26 20 -56 37 -67 39 -11 2 -61
36 -112 77 -50 41 -115 91 -143 111 -65 45 -199 101 -248 103 -20 0 -35 4 -33
7 5 8 -77 29 -88 23 -4 -3 -8 0 -8 6 0 7 -12 9 -36 4 -29 -5 -35 -4 -29 6 6
10 1 12 -24 7 -27 -6 -34 -4 -38 13 -5 20 -15 24 -41 21 -8 -1 -16 6 -19 16
-6 23 -82 81 -160 122 -59 32 -128 93 -116 105 8 8 -44 19 -56 12 -6 -4 -8 3
-5 17 5 28 -20 42 -81 46 -22 1 -43 7 -46 13 -4 7 -53 19 -108 29 -55 9 -111
19 -125 23 l-26 6 5 -57 5 -58 -15 40 c-23 57 -36 206 -26 295 l8 75 3 -105 3
-105 7 136 c8 147 18 219 29 219 4 0 12 -5 18 -11 18 -18 80 -13 112 10 43 31
67 75 106 197 35 111 49 234 23 218 -7 -4 -8 -3 -4 5 9 15 -3 53 -15 46 -5 -3
-6 1 -3 9 3 9 -3 20 -15 28 -30 19 -26 62 10 116 39 58 69 134 69 176 0 22 10
43 30 66 17 18 30 42 30 53 0 11 5 37 11 57 13 42 -2 162 -21 168 -5 2 -10 12
-10 21 0 10 -13 45 -30 77 -16 32 -30 69 -30 82 0 31 -127 159 -166 167 -89
20 -128 41 -167 91 -36 46 -115 112 -165 138 -17 9 -48 27 -67 40 -23 16 -57
27 -93 30 -31 4 -100 13 -152 21 -137 20 -333 45 -345 44 -5 -1 -19 -4 -29 -6z
m59 -859 c17 -2 37 -5 45 -5 8 -1 20 -5 25 -9 6 -4 28 -7 50 -6 22 2 59 -6 83
-15 36 -15 42 -22 42 -47 0 -28 2 -30 37 -28 31 1 44 -5 75 -36 34 -34 43 -68
17 -68 -5 0 -9 -9 -9 -20 0 -21 -64 -60 -99 -60 -11 0 -26 -6 -33 -14 -8 -7
-23 -16 -33 -20 -11 -3 -26 -18 -33 -33 -11 -24 -10 -31 9 -56 34 -47 60 -137
66 -233 5 -79 3 -96 -16 -131 -16 -33 -25 -40 -41 -36 -11 3 -27 0 -35 -7 -13
-11 -23 -9 -56 9 -26 15 -48 21 -65 17 -33 -9 -30 -31 6 -46 21 -9 30 -19 30
-35 0 -22 24 -40 40 -30 5 3 11 1 15 -5 3 -5 21 -10 38 -10 29 -1 30 -2 14
-14 -13 -10 -15 -15 -5 -18 9 -3 5 -9 -9 -16 -19 -11 -47 -15 -165 -26 -16 -1
-28 1 -28 6 0 4 -17 8 -37 8 l-37 0 29 30 28 29 -27 11 c-23 8 -25 14 -20 37
4 16 23 52 41 80 42 66 27 68 -49 8 -81 -63 -128 -137 -129 -201 -1 -28 4 -60
10 -72 7 -13 9 -28 5 -34 -4 -6 -3 -8 3 -5 12 8 55 -21 48 -32 -2 -5 4 -16 15
-26 19 -17 19 -17 18 17 -2 54 9 62 42 34 19 -16 37 -22 50 -19 15 4 18 9 11
16 -18 18 -13 48 9 54 11 3 20 9 20 14 0 4 17 8 38 7 22 0 61 3 88 6 27 4 55
2 63 -3 9 -6 23 -5 38 2 17 7 30 7 51 -3 15 -7 35 -12 45 -11 12 2 17 -5 17
-23 0 -14 -6 -27 -12 -27 -47 -4 -78 -21 -78 -41 0 -14 5 -18 15 -14 19 7 20
-20 2 -38 -33 -34 -83 -50 -153 -50 -57 0 -69 -3 -56 -12 13 -9 14 -15 4 -26
-9 -11 -9 -18 1 -30 14 -17 102 -37 166 -37 47 0 101 -17 101 -33 0 -5 6 -6
13 -3 6 4 1 -3 -13 -14 -14 -11 -29 -21 -34 -21 -5 0 -17 -7 -26 -15 -9 -8
-38 -17 -65 -21 -28 -3 -61 -8 -75 -10 -73 -13 -123 -15 -154 -4 -20 6 -36 15
-36 19 0 3 -16 15 -35 25 -57 31 -82 79 -99 186 -5 33 -38 120 -46 120 -4 0
-13 12 -19 28 -13 31 -51 61 -51 40 0 -36 -33 30 -69 140 l-42 124 10 163 c6
111 13 172 24 191 20 38 47 160 45 204 -3 75 27 147 58 138 5 -1 19 3 32 10
12 7 22 10 22 7 0 -3 15 10 34 28 37 37 92 56 141 50 17 -3 44 -7 60 -9z m618
-599 c50 -32 27 -151 -38 -201 l-31 -23 -83 72 c-54 48 -89 88 -102 116 -10
24 -17 46 -15 50 2 3 58 5 125 4 90 -1 126 -6 144 -18z"/>
<path d="M1579 3846 c-42 -8 -85 -17 -96 -20 -26 -8 -82 -56 -66 -56 22 0 35
-37 21 -59 -18 -29 1 -40 21 -12 39 58 72 81 113 81 53 0 45 -17 -19 -39 -51
-17 -91 -47 -79 -58 3 -4 -1 -15 -11 -25 -19 -21 -15 -22 24 -7 31 11 113 19
113 10 0 -9 -52 -31 -74 -31 -21 -1 -21 -1 -2 -15 41 -31 169 -10 272 44 34
18 43 29 50 59 10 50 11 55 18 73 4 9 -1 26 -12 39 -17 21 -29 24 -108 26 -49
2 -123 -3 -165 -10z"/>
</g>
</svg>
